<?xml version="1.0" encoding="utf-8"?>
<!-- Generator: Adobe Illustrator 18.1.1, SVG Export Plug-In . SVG Version: 6.00 Build 0)  -->
<svg version="1.1"  xmlns="http://www.w3.org/2000/svg" xmlns:xlink="http://www.w3.org/1999/xlink" x="0px" y="0px"
	 viewBox="0 0 48 48" enable-background="new 0 0 48 48" xml:space="preserve">
<path fill="#3F51B5" d="M10,42h28c2.2,0,4-1.8,4-4V15.7c0-1.6-1-3.1-2.6-3.7L24,6L8.6,12C7,12.6,6,14.1,6,15.7V38
	C6,40.2,7.8,42,10,42z"/>
<path fill="#FFC107" d="M34,17L32,15c-1.6,1.6-6.4,1.7-8,0c-1.7,1.7-6.5,1.6-8,0L14,17c0,0,1.2,2.1,1.2,4c0,3-1.2,4.2-1.2,8.1
	c0,7.3,8.5,8.8,10,9.9c1.6-1.1,10-2.6,10-9.9c0-4-1.2-5-1.2-8.1C32.8,19.2,34,17,34,17z"/>
<path fill="#E09E00" d="M24.8,35.9c-0.3,0.1-0.5,0.2-0.7,0.3c-0.2-0.1-0.5-0.2-0.8-0.3c-3.5-1.4-6.7-3-6.7-6.7c0-1.8,0.3-2.9,0.6-4
	c0.3-1.1,0.6-2.4,0.6-4.1c0-0.9-0.2-1.8-0.4-2.6c1.1,0.3,2.1,0.3,2.7,0.3c0.8,0,2.5-0.1,4-0.8c1.5,0.7,3.2,0.8,4,0.8
	c0.6,0,1.6,0,2.7-0.3c-0.2,0.8-0.4,1.7-0.4,2.6c0,1.8,0.3,3.1,0.6,4.2c0.3,1.1,0.6,2.2,0.6,3.9C31.4,32.9,28.3,34.5,24.8,35.9z"/>
<polygon fill="#FFEB3B" points="27.1,31.3 24,29.4 20.9,31.2 21.6,27.7 18.9,25.3 22.5,25 24,21.7 25.5,25 29.1,25.3 26.4,27.7 "/>
</svg>
